<svg width="30" height="30" viewBox="0 0 30 30" fill="none" xmlns="http://www.w3.org/2000/svg">
<path d="M13.9738 15.4109C14.2279 15.6588 14.4737 15.8837 14.7117 16.0873L9.56645 21.2325C9.33161 21.0053 9.09365 20.7719 8.85252 20.5322L13.9738 15.4109Z" fill="white"/>
<path d="M8.14789 19.8227L13.278 14.6925C10.4991 11.6438 11.1328 9.82959 11.6989 8.20892C12.1778 6.838 12.6083 5.60558 10.8838 3.88163C10.4172 3.41516 9.99731 2.9732 9.61048 2.56607C6.89182 -0.295317 5.80792 -1.43612 1.64297 2.72911C1.61182 2.76785 1.55829 2.82013 1.48911 2.88769C0.511907 3.84211 -3.58821 7.84663 8.14789 19.8227Z" fill="white"/>
<path d="M10.2904 21.9228L15.5042 16.709C17.8959 18.4095 19.4529 17.864 20.8632 17.3699C22.2333 16.89 23.4651 16.4584 25.1893 18.1815C25.6498 18.6418 26.0861 19.0569 26.4886 19.4397C29.3603 22.1712 30.5049 23.2599 26.3422 27.4214C26.3033 27.4527 26.2509 27.5064 26.1831 27.5758C25.2564 28.5253 21.4598 32.4148 10.2904 21.9228Z" fill="white"/>
<rect x="21.3848" y="8" width="1" height="26" transform="rotate(45 21.3848 8)" fill="white"/>
</svg>
