<svg width="30" height="30" viewBox="0 0 30 30" fill="none" xmlns="http://www.w3.org/2000/svg">
<rect opacity="0.7" width="30" height="30" rx="7" fill="white"/>
<path d="M15 23C12.9556 23 11.1742 22.3224 9.656 20.9671C8.13778 19.6118 7.26726 17.9191 7.04444 15.8889H8.86667C9.07407 17.4296 9.75941 18.7037 10.9227 19.7111C12.0859 20.7185 13.445 21.2222 15 21.2222C16.7333 21.2222 18.2038 20.6187 19.4116 19.4116C20.6193 18.2044 21.2228 16.7339 21.2222 15C21.2216 13.2661 20.6181 11.7959 19.4116 10.5893C18.205 9.38281 16.7345 8.77896 15 8.77778C13.9778 8.77778 13.0222 9.01481 12.1333 9.48889C11.2444 9.96296 10.4963 10.6148 9.88889 11.4444H12.3333V13.2222H7V7.88889H8.77778V9.97778C9.53333 9.02963 10.4557 8.2963 11.5449 7.77778C12.6341 7.25926 13.7858 7 15 7C16.1111 7 17.152 7.21126 18.1227 7.63378C19.0933 8.0563 19.9378 8.62637 20.656 9.344C21.3742 10.0616 21.9446 10.9061 22.3671 11.8773C22.7896 12.8486 23.0006 13.8895 23 15C22.9994 16.1105 22.7884 17.1514 22.3671 18.1227C21.9458 19.0939 21.3754 19.9384 20.656 20.656C19.9366 21.3736 19.0921 21.944 18.1227 22.3671C17.1532 22.7902 16.1123 23.0012 15 23ZM17.4889 18.7333L14.1111 15.3556V10.5556H15.8889V14.6444L18.7333 17.4889L17.4889 18.7333Z" fill="#259CFF"/>
</svg>
