<svg width="30" height="30" viewBox="0 0 30 30" fill="none" xmlns="http://www.w3.org/2000/svg">
<rect opacity="0.7" width="30" height="30" rx="7" fill="white"/>
<path d="M19.9 7H10.1C9.715 7 9.4 7.31875 9.4 7.70833C9.4 8.09792 9.715 8.41667 10.1 8.41667H19.9C20.285 8.41667 20.6 8.09792 20.6 7.70833C20.6 7.31875 20.285 7 19.9 7ZM10.1 24H19.9C20.285 24 20.6 23.6812 20.6 23.2917C20.6 22.9021 20.285 22.5833 19.9 22.5833H10.1C9.715 22.5833 9.4 22.9021 9.4 23.2917C9.4 23.6812 9.715 24 10.1 24ZM20.6 9.83333H9.4C8.63 9.83333 8 10.4708 8 11.25V19.75C8 20.5292 8.63 21.1667 9.4 21.1667H20.6C21.37 21.1667 22 20.5292 22 19.75V11.25C22 10.4708 21.37 9.83333 20.6 9.83333ZM15 11.7812C15.868 11.7812 16.575 12.4967 16.575 13.375C16.575 14.2533 15.868 14.9688 15 14.9688C14.132 14.9688 13.425 14.2533 13.425 13.375C13.425 12.4967 14.132 11.7812 15 11.7812ZM18.5 19.0417H11.5V17.9792C11.5 16.7962 13.831 16.2083 15 16.2083C16.169 16.2083 18.5 16.7962 18.5 17.9792V19.0417Z" fill="#259CFF"/>
</svg>
