<svg width="30" height="30" viewBox="0 0 30 30" fill="none" xmlns="http://www.w3.org/2000/svg">
<rect opacity="0.7" width="30" height="30" rx="7" fill="white"/>
<path d="M7.5 12.1393V18.2679C7.5 18.8362 7.72576 19.3812 8.12763 19.7831C8.52949 20.1849 9.07454 20.4107 9.64286 20.4107H20.3571C20.9255 20.4107 21.4705 20.1849 21.8724 19.7831C22.2742 19.3812 22.5 18.8362 22.5 18.2679V12.1393L16.1229 16.0629C15.7852 16.2706 15.3965 16.3806 15 16.3806C14.6035 16.3806 14.2148 16.2706 13.8771 16.0629L7.5 12.1393Z" fill="#219AFF"/>
<path d="M22.5 10.8807V10.7679C22.5 10.1995 22.2742 9.65449 21.8724 9.25263C21.4705 8.85076 20.9255 8.625 20.3571 8.625H9.64286C9.07454 8.625 8.52949 8.85076 8.12763 9.25263C7.72576 9.65449 7.5 10.1995 7.5 10.7679V10.8807L14.4386 15.1507C14.6074 15.2546 14.8018 15.3096 15 15.3096C15.1982 15.3096 15.3926 15.2546 15.5614 15.1507L22.5 10.8807Z" fill="#219AFF"/>
</svg>
