<svg width="30" height="30" viewBox="0 0 30 30" fill="none" xmlns="http://www.w3.org/2000/svg">
<rect opacity="0.7" width="30" height="30" rx="7" fill="white"/>
<path fill-rule="evenodd" clip-rule="evenodd" d="M14.1814 6.04777C11.9851 6.39793 10.2231 8.1336 9.79093 10.3727C9.72624 10.7078 9.70114 10.7761 9.60331 10.8827C9.36414 11.1433 9.36321 11.1482 9.3511 12.2366C9.3451 12.7782 9.34969 13.2869 9.36131 13.3671C9.38921 13.5595 9.56221 13.8205 9.72517 13.9162C9.84493 13.9864 9.86534 14.0223 9.96893 14.345C10.3069 15.3972 11.0082 16.3616 11.916 17.0222C12.0763 17.1389 12.1444 17.214 12.1748 17.308C12.3518 17.8551 13.2459 18.0992 13.4953 17.6685C13.5673 17.5443 13.5674 17.345 13.4957 17.1908C13.3584 16.8959 12.9182 16.6534 12.6008 16.6978C12.4615 16.7172 12.4309 16.7058 12.2161 16.5545C11.6826 16.1787 11.0579 15.4311 10.7441 14.7928C10.6368 14.5746 10.4483 14.0947 10.4483 14.0399C10.4483 14.0306 10.5242 13.9749 10.6171 13.916C10.8437 13.7724 10.9639 13.5598 10.9945 13.2485L11.0179 13.0103L11.0647 13.2213C11.2451 14.0348 11.7413 15.0418 12.3152 15.759C12.832 16.4048 13.5972 16.9438 14.2586 17.1278C14.5331 17.2042 15.2174 17.2331 15.4924 17.1801C16.1772 17.0479 16.7739 16.7054 17.3639 16.1057C18.0682 15.3899 18.5861 14.4708 18.9001 13.3795C18.9844 13.0863 18.9964 13.0632 18.9981 13.1905C19.0025 13.525 19.1822 13.82 19.4689 13.963C19.8497 14.153 20.3087 14.016 20.5336 13.6452L20.6379 13.4731L20.6483 12.4329C20.6602 11.2434 20.6501 11.1737 20.4281 10.9219C20.3004 10.777 20.2744 10.7202 20.2403 10.5105C19.8664 8.2154 18.0475 6.39251 15.7856 6.04601C15.3802 5.98394 14.5763 5.98482 14.1814 6.04777ZM16.0211 6.6569C17.8013 7.0763 19.2022 8.47683 19.6202 10.2551C19.7033 10.6087 19.7058 10.6716 19.6366 10.6716C19.5419 10.6716 19.3237 10.8051 19.2184 10.9275L19.1157 11.0467L19.0572 10.7314C18.7559 9.10594 17.6432 8.00728 15.9483 7.66173C15.5129 7.57297 14.4871 7.57297 14.0517 7.66173C12.3564 8.00735 11.2441 9.1059 10.9426 10.7323L10.884 11.0486L10.8011 10.9482C10.7555 10.893 10.6262 10.7819 10.5137 10.7014C10.3767 10.6035 10.3142 10.5366 10.3244 10.4991C10.3328 10.4683 10.3497 10.3877 10.3619 10.32C10.3741 10.2523 10.4241 10.0703 10.4729 9.91556C10.9867 8.28844 12.3365 7.03034 13.9617 6.66397C14.3918 6.56701 14.4394 6.56325 15.1034 6.57355C15.5692 6.58076 15.7786 6.59979 16.0211 6.6569ZM17.3086 19.0635C16.6395 20.4797 16.4277 20.8987 16.4063 20.8482C16.3909 20.8119 16.1955 20.2758 15.9721 19.6569L15.5659 18.5315L15.4468 18.5491C15.3812 18.5588 15.1802 18.5667 15 18.5667C14.8198 18.5667 14.6188 18.5588 14.5532 18.5491L14.4341 18.5315L13.9857 19.7711C13.7391 20.4529 13.5289 21.0107 13.5187 21.0105C13.5084 21.0104 13.1134 20.1869 12.6409 19.1807C12.1684 18.1744 11.7648 17.3273 11.744 17.2984C11.7119 17.2536 11.5096 17.3411 10.3978 17.8808C9.67817 18.2301 8.99555 18.5699 8.8809 18.6359C8.05617 19.1106 7.30103 20.0985 7.06721 21.0086C7.00614 21.2463 7 21.3951 7 22.6351V24H15H23V22.6351C23 21.3951 22.9939 21.2463 22.9328 21.0086C22.707 20.1295 21.9696 19.1448 21.1774 18.6643C21.0101 18.5628 18.2487 17.2127 18.2084 17.2127C18.1944 17.2127 17.7894 18.0456 17.3086 19.0635Z" fill="#2FA0FF"/>
</svg>
