<svg width="30" height="30" viewBox="0 0 30 30" fill="none" xmlns="http://www.w3.org/2000/svg">
<rect opacity="0.7" width="30" height="30" rx="15" fill="white"/>
<path fill-rule="evenodd" clip-rule="evenodd" d="M18.6316 7C19.2597 7 19.8621 7.25286 20.3063 7.70294C20.7505 8.15303 21 8.76348 21 9.4V20.6C21 21.2365 20.7505 21.847 20.3063 22.2971C19.8621 22.7471 19.2597 23 18.6316 23H13.8947C13.2665 23 12.6641 22.7471 12.2199 22.2971C11.7757 21.847 11.5262 21.2365 11.5262 20.6V9.4C11.5262 8.76348 11.7757 8.15303 12.2199 7.70294C12.6641 7.25286 13.2665 7 13.8947 7H18.6316ZM10.5054 11.2344C10.3574 11.0844 10.1566 11.0002 9.94724 11.0002C9.7379 11.0002 9.53713 11.0844 9.38908 11.2344L6.23115 14.4344C6.08314 14.5844 6 14.7879 6 15C6 15.2121 6.08314 15.4156 6.23115 15.5656L9.38908 18.7656C9.53798 18.9113 9.7374 18.992 9.9444 18.9901C10.1514 18.9883 10.3494 18.9042 10.4958 18.7559C10.6422 18.6075 10.7252 18.4069 10.727 18.1971C10.7288 17.9874 10.6492 17.7853 10.5054 17.6344L8.69512 15.8H15.4736C15.683 15.8 15.8838 15.7157 16.0319 15.5657C16.1799 15.4157 16.2631 15.2122 16.2631 15C16.2631 14.7878 16.1799 14.5843 16.0319 14.4343C15.8838 14.2843 15.683 14.2 15.4736 14.2H8.69512L10.5054 12.3656C10.6534 12.2156 10.7366 12.0121 10.7366 11.8C10.7366 11.5879 10.6534 11.3844 10.5054 11.2344Z" fill="#36A4FF"/>
</svg>
