<svg width="30" height="30" viewBox="0 0 30 30" fill="none" xmlns="http://www.w3.org/2000/svg">
<rect opacity="0.7" width="30" height="30" rx="7" fill="white"/>
<path d="M20.25 6C20.7141 6 21.1592 6.18964 21.4874 6.52721C21.8156 6.86477 22 7.32261 22 7.8V22.2C22 22.6774 21.8156 23.1352 21.4874 23.4728C21.1592 23.8104 20.7141 24 20.25 24H9.75C9.28587 24 8.84075 23.8104 8.51256 23.4728C8.18437 23.1352 8 22.6774 8 22.2V7.8C8 7.32261 8.18437 6.86477 8.51256 6.52721C8.84075 6.18964 9.28587 6 9.75 6H20.25ZM15 15.9H12.375C12.1429 15.9 11.9204 15.9948 11.7563 16.1636C11.5922 16.3324 11.5 16.5613 11.5 16.8C11.5 17.0387 11.5922 17.2676 11.7563 17.4364C11.9204 17.6052 12.1429 17.7 12.375 17.7H15C15.2321 17.7 15.4546 17.6052 15.6187 17.4364C15.7828 17.2676 15.875 17.0387 15.875 16.8C15.875 16.5613 15.7828 16.3324 15.6187 16.1636C15.4546 15.9948 15.2321 15.9 15 15.9ZM17.625 11.4H12.375C12.152 11.4003 11.9375 11.4881 11.7753 11.6456C11.6131 11.803 11.5155 12.0183 11.5025 12.2473C11.4894 12.4763 11.5618 12.7017 11.705 12.8776C11.8481 13.0536 12.0512 13.1666 12.2726 13.1937L12.375 13.2H17.625C17.848 13.1997 18.0625 13.1119 18.2247 12.9544C18.3869 12.797 18.4845 12.5817 18.4975 12.3527C18.5106 12.1237 18.4382 11.8983 18.295 11.7224C18.1519 11.5464 17.9488 11.4334 17.7274 11.4063L17.625 11.4Z" fill="#31A1FF"/>
</svg>
