<svg width="20" height="20" viewBox="0 0 20 20" fill="none" xmlns="http://www.w3.org/2000/svg">
<path opacity="0.4" d="M14.334 0H5.665C2.276 0 0 2.378 0 5.917V14.084C0 17.622 2.276 20 5.665 20H14.333C17.722 20 20 17.622 20 14.084V5.917C20 2.378 17.723 0 14.334 0Z" fill="#1F99FF"/>
<path d="M6.84389 7.39871C8.01389 7.39871 8.99389 8.17871 9.31389 9.24871H15.0139C15.4239 9.24871 15.7639 9.58871 15.7639 9.99871V11.8487C15.7639 12.2687 15.4239 12.5987 15.0139 12.5987C14.5939 12.5987 14.2639 12.2687 14.2639 11.8487V10.7487H12.9339V11.8487C12.9339 12.2687 12.5939 12.5987 12.1839 12.5987C11.7639 12.5987 11.4339 12.2687 11.4339 11.8487V10.7487H9.31389C8.99389 11.8187 8.01389 12.5987 6.84389 12.5987C5.40389 12.5987 4.23389 11.4387 4.23389 9.99871C4.23389 8.56871 5.40389 7.39871 6.84389 7.39871ZM6.84389 8.89871C6.23389 8.89871 5.73389 9.38871 5.73389 9.99871C5.73389 10.6087 6.23389 11.0987 6.84389 11.0987C7.44389 11.0987 7.94389 10.6087 7.94389 9.99871C7.94389 9.38871 7.44389 8.89871 6.84389 8.89871Z" fill="#1F99FF"/>
</svg>
